<?xml version="1.0" encoding="UTF-8"?>
<svg version="1.1" xmlns="http://www.w3.org/2000/svg" width="142" height="125">
<path d="M0 0 C0.99 0 1.98 0 3 0 C8.62733649 6.84232959 13 15.04150351 13 24 C13.99 24 14.98 24 16 24 C16.061875 24.78375 16.12375 25.5675 16.1875 26.375 C17.12149065 30.54203522 18.83148197 33.77100286 20.7890625 37.5390625 C23.10611836 42.24791796 24.32134562 46.6977972 24 52 C23.01 52 22.02 52 21 52 C17.20046974 47.64939283 14.43466066 42.59517659 13 37 C11.97712891 37.87785156 11.97712891 37.87785156 10.93359375 38.7734375 C-2.14864296 48.70269839 -19.54548644 52.80040129 -34.99121094 57.71679688 C-38.36471838 58.79204957 -41.72808615 59.89593529 -45.08947754 61.00840759 C-47.71753256 61.87498574 -50.35019529 62.72684511 -52.98425293 63.57498169 C-54.82887322 64.17255697 -56.66890949 64.78422439 -58.50878906 65.39624023 C-64.84144945 67.40333021 -69.476173 68.51474607 -76 67 C-76 65.68 -76 64.36 -76 63 C-78.61129498 59.95348919 -81.13371919 57.28876027 -85 56 C-86.485 56.495 -86.485 56.495 -88 57 C-87.51644989 50.59296098 -87.51644989 50.59296098 -85.3125 48.0625 C-82.29612809 46.67659939 -80.30167939 46.68867539 -77 47 C-74.61328125 48.63671875 -74.61328125 48.63671875 -72.3125 50.6875 C-69.20367783 53.0534225 -67.8559401 54.05626913 -63.91015625 53.796875 C-61.17406155 53.02217637 -58.60226183 52.14281841 -56 51 C-56.33 50.01 -56.66 49.02 -57 48 C-57.5775 48.144375 -58.155 48.28875 -58.75 48.4375 C-60.83333333 48.95833333 -62.91666667 49.47916667 -65 50 C-64.875 47.6875 -64.875 47.6875 -64 45 C-60.9375 43.1875 -60.9375 43.1875 -58 42 C-60.475 39.525 -60.475 39.525 -63 37 C-62.5 35.0625 -62.5 35.0625 -61 33 C-55.25259102 31.8908509 -50.25562208 32.07948597 -44.5 32.9375 C-43.77296875 33.03740234 -43.0459375 33.13730469 -42.296875 33.24023438 C-40.52996279 33.48434725 -38.76476986 33.74085297 -37 34 C-36.75765625 33.23171875 -36.5153125 32.4634375 -36.265625 31.671875 C-34.17470436 27.25770921 -30.33071689 25.89377112 -26 24 C-22.4836711 23.01542791 -20.45452117 22.90909577 -16.875 23.625 C-12.10525474 24.08658825 -8.47199286 23.02998296 -3.890625 21.76953125 C-0.58703341 20.8900616 2.60888373 20.38535412 6 20 C5.73445313 19.49210937 5.46890625 18.98421875 5.1953125 18.4609375 C2.02433864 12.28101033 -0.33802245 7.09847138 0 0 Z M-2 24 C-2.24428343 29.7974423 -2.24428343 29.7974423 0 35 C-0.99 34.67 -1.98 34.34 -3 34 C-3.598125 34.45375 -4.19625 34.9075 -4.8125 35.375 C-7.50889612 37.37803712 -9.70336199 37.62538204 -13 38 C-13 38.99 -13 39.98 -13 41 C-11.3528911 41.85247568 -11.3528911 41.85247568 -9 42 C-6.53009888 40.94229439 -4.27783799 39.85296674 -1.9375 38.5625 C4.63785714 35 4.63785714 35 8 35 C6.68938409 30.76570244 5.05643741 26.92592596 3 23 C0.0745356 22.7763932 0.0745356 22.7763932 -2 24 Z M-4 24 C-6.54254747 25.10217319 -9.0840426 26.20667178 -11.625 27.3125 C-12.33785156 27.62123047 -13.05070312 27.92996094 -13.78515625 28.24804688 C-17.01802093 29.65686405 -20.19378772 31.09779941 -23.34375 32.6875 C-25.93703029 33.96888555 -28.15110608 34.58104501 -31 35 C-31 35.33 -31 35.66 -31 36 C-28.36 36 -25.72 36 -23 36 C-23 35.34 -23 34.68 -23 34 C-21.43840941 33.51787786 -19.87568072 33.03944127 -18.3125 32.5625 C-17.44238281 32.29566406 -16.57226562 32.02882813 -15.67578125 31.75390625 C-13.11109686 31.03130174 -10.64114818 30.36180112 -8 30 C-6.1875 31.4375 -6.1875 31.4375 -5 33 C-5.50603992 30.83125748 -5.99983813 29.00032373 -7 27 C-5.68 27.33 -4.36 27.66 -3 28 C-3.33 26.68 -3.66 25.36 -4 24 Z M-19 26 C-18 28 -18 28 -18 28 Z M-31 30 C-27.06924356 29.42547254 -27.06924356 29.42547254 -24 27 C-27.51716303 27 -28.37121748 27.82445585 -31 30 Z M-23 36 C-23 36.33 -23 36.66 -23 37 C-21.35 37 -19.7 37 -18 37 C-18 36.67 -18 36.34 -18 36 C-19.65 36 -21.3 36 -23 36 Z M-37 37 C-37 37.33 -37 37.66 -37 38 C-35.35 38 -33.7 38 -32 38 C-32 37.67 -32 37.34 -32 37 C-33.65 37 -35.3 37 -37 37 Z M-17 37 C-13 38 -13 38 -13 38 Z M-32 38 C-32 38.33 -32 38.66 -32 39 C-26.54538831 40.38529821 -21.63281599 41.2396943 -16 41 C-16.33 40.34 -16.66 39.68 -17 39 C-22.03890228 37.9716526 -26.88689982 37.91029649 -32 38 Z M-25 48 C-21.62537285 47.45276317 -19.91765 46.9451 -17 45 C-21.26826873 45 -21.93882432 45.37613513 -25 48 Z M-55.30078125 54.87109375 C-56.27724609 55.28037109 -57.25371094 55.68964844 -58.25976562 56.11132812 C-59.26716797 56.54896484 -60.27457031 56.98660156 -61.3125 57.4375 C-62.33923828 57.87126953 -63.36597656 58.30503906 -64.42382812 58.75195312 C-66.95442896 59.82304464 -69.47924231 60.90599053 -72 62 C-68.36545309 63.21151564 -67.07878256 62.65868046 -63.45703125 61.56640625 C-62.38388672 61.24736328 -61.31074219 60.92832031 -60.20507812 60.59960938 C-59.08552734 60.25736328 -57.96597656 59.91511719 -56.8125 59.5625 C-55.68134766 59.22412109 -54.55019531 58.88574219 -53.38476562 58.53710938 C-50.58743231 57.69908969 -47.792762 56.85310671 -45 56 C-45 55.34 -45 54.68 -45 54 C-49.13994893 52.82228403 -51.36997743 53.1930313 -55.30078125 54.87109375 Z M-79 54 C-77.02 56.64 -75.04 59.28 -73 62 C-72.01 60.68 -71.02 59.36 -70 58 C-71.670625 57.01 -71.670625 57.01 -73.375 56 C-74.00148438 55.62875 -74.62796875 55.2575 -75.2734375 54.875 C-76.97472667 53.84931652 -76.97472667 53.84931652 -79 54 Z " fill="#4D4D4D" transform="translate(103,0)"/>
<path d="M0 0 C1.31291016 -0.03867188 1.31291016 -0.03867188 2.65234375 -0.078125 C5.0625 0.25 5.0625 0.25 6.87890625 1.328125 C9.08746581 4.91430092 8.40100336 8.5984201 7.58203125 12.59423828 C6.9487427 15.17932617 6.2674627 17.74605471 5.5625 20.3125 C3.38821125 28.15146625 3.38821125 28.15146625 3.0625 36.25 C0.72955225 36.29241723 -1.60452567 36.29092937 -3.9375 36.25 C-4.4325 35.755 -4.4325 35.755 -4.9375 35.25 C-4.84765699 33.39227838 -4.69138139 31.53752015 -4.5 29.6875 C-4.39816406 28.67558594 -4.29632812 27.66367188 -4.19140625 26.62109375 C-4.10761719 25.83863281 -4.02382813 25.05617188 -3.9375 24.25 C-5.2575 23.92 -6.5775 23.59 -7.9375 23.25 C-8.9275 27.54 -9.9175 31.83 -10.9375 36.25 C-13.5775 36.25 -16.2175 36.25 -18.9375 36.25 C-17.9475 31.96 -16.9575 27.67 -15.9375 23.25 C-18.5775 23.25 -21.2175 23.25 -23.9375 23.25 C-23.0625 19.375 -23.0625 19.375 -21.9375 18.25 C-19.26691149 18.10884839 -16.61317762 18.20752893 -13.9375 18.25 C-13.85113281 17.52554688 -13.76476563 16.80109375 -13.67578125 16.0546875 C-12.73565319 9.58591647 -11.71327322 5.78698456 -6.9375 1.25 C-4.48367866 0.02308933 -2.73765897 0.04824069 0 0 Z M-1.9375 4.25 C-5.44678168 8.43414355 -5.60669754 13.01419562 -5.9375 18.25 C-4.6175 18.25 -3.2975 18.25 -1.9375 18.25 C0.66276749 11.44431865 0.66276749 11.44431865 1.0625 4.25 C0.0725 4.25 -0.9175 4.25 -1.9375 4.25 Z " fill="#4D4D4D" transform="translate(23.9375,70.75)"/>
<path d="M0 0 C2.64 0 5.28 0 8 0 C6.82144268 6.70774643 5.52351686 13.36181939 4 20 C6.46507156 17.82107943 7.50780848 16.14760735 8.38671875 12.98828125 C8.58225342 12.30548096 8.77778809 11.62268066 8.97924805 10.91918945 C9.21297119 10.05898193 9.44669434 9.19877441 9.6875 8.3125 C10.450625 5.569375 11.21375 2.82625 12 0 C17.94 0 23.88 0 30 0 C28.89873418 8.81012658 28.89873418 8.81012658 27.9375 12 C26.83950966 16.07709649 26.9261914 19.79290975 27 24 C26 25 26 25 23.0625 25.1875 C20 25 20 25 18 23 C17.86369659 16.88906391 19.37542602 10.84846633 21 5 C20.01 4.67 19.02 4.34 18 4 C17.896875 5.175625 17.79375 6.35125 17.6875 7.5625 C16.79773287 14.28913953 14.57437053 19.58410519 9.25 23.91015625 C4.77441838 26.0780161 -0.1600882 25.42915474 -5 25 C-4.37392048 19.20052651 -3.32599062 13.66190169 -1.9375 8 C-1.75123047 7.22527344 -1.56496094 6.45054688 -1.37304688 5.65234375 C-0.91923822 3.76729241 -0.46017508 1.8835073 0 0 Z " fill="#4E4E4E" transform="translate(34,82)"/>
<path d="M0 0 C1.11084961 0.02707031 1.11084961 0.02707031 2.24414062 0.0546875 C4.0591571 0.10152663 5.87350166 0.17326211 7.6875 0.25 C7.14502001 5.22273328 6.36455752 9.94292036 5.08984375 14.78125 C4.51728695 18.29441407 4.63143397 21.69167565 4.6875 25.25 C1.74975537 25.30390357 -1.18700232 25.3436255 -4.125 25.375 C-4.95837891 25.39175781 -5.79175781 25.40851563 -6.65039062 25.42578125 C-7.45283203 25.43222656 -8.25527344 25.43867187 -9.08203125 25.4453125 C-10.18961792 25.46102295 -10.18961792 25.46102295 -11.31958008 25.47705078 C-13.3125 25.25 -13.3125 25.25 -16.3125 23.25 C-17.01406302 16.81900567 -16.00105532 10.15931612 -13.3125 4.25 C-9.22177405 -0.26811523 -5.70556049 -0.26513775 0 0 Z M-5.3125 4.25 C-7.40820426 9.94398894 -8.76268084 15.20198929 -9.3125 21.25 C-7.6625 20.92 -6.0125 20.59 -4.3125 20.25 C-3.64065382 18.14748139 -2.97519032 16.04292237 -2.3125 13.9375 C-1.94125 12.76574219 -1.57 11.59398438 -1.1875 10.38671875 C-0.17815228 7.31113324 -0.17815228 7.31113324 -0.3125 4.25 C-1.9625 4.25 -3.6125 4.25 -5.3125 4.25 Z " fill="#4E4E4E" transform="translate(80.3125,81.75)"/>
<path d="M0 0 C3 2 3 2 3.3984375 3.8125 C3.32204028 10.94290739 2.445418 17.88764981 -2.0625 23.625 C-6.30286964 25.60985388 -10.38941162 25.67205187 -15 25 C-15.99 24.34 -16.98 23.68 -18 23 C-18.81079924 15.56767362 -17.55739594 7.33236441 -12.9375 1.3125 C-8.68752874 -0.58642333 -4.58772762 -0.66871962 0 0 Z M-7 4 C-9.09570426 9.69398894 -10.45018084 14.95198929 -11 21 C-9.68 20.67 -8.36 20.34 -7 20 C-6.49411853 18.08487728 -5.99551609 16.16783078 -5.5 14.25 C-5.08234375 12.64898437 -5.08234375 12.64898437 -4.65625 11.015625 C-3.85824011 7.86294698 -3.85824011 7.86294698 -4 4 C-4.99 4 -5.98 4 -7 4 Z " fill="#4E4E4E" transform="translate(118,82)"/>
<path d="M0 0 C5.28 0 10.56 0 16 0 C15.67 2.31 15.34 4.62 15 7 C12.69 7 10.38 7 8 7 C4.70929268 12.64121255 3.44387613 18.67152164 2 25 C-0.64 25 -3.28 25 -6 25 C-4.67209991 16.4385389 -2.46645328 8.30372603 0 0 Z " fill="#4D4D4D" transform="translate(126,81)"/>
<path d="M0 0 C2.31 0 4.62 0 7 0 C6.67 1.65 6.34 3.3 6 5 C6.99 5.33 7.98 5.66 9 6 C8.67 6.99 8.34 7.98 8 9 C7.01 9 6.02 9 5 9 C3.68 14.61 2.36 20.22 1 26 C1.66 26.33 2.32 26.66 3 27 C2.67 27.99 2.34 28.98 2 30 C-3.75 30.125 -3.75 30.125 -6 29 C-6.40850553 21.91923749 -4.90420731 15.80074041 -3 9 C-3.99 8.67 -4.98 8.34 -6 8 C-5.67 7.01 -5.34 6.02 -5 5 C-3.68 5 -2.36 5 -1 5 C-0.67 3.35 -0.34 1.7 0 0 Z " fill="#4E4E4E" transform="translate(95,76)"/>
<path d="M0 0 C13.86 0 27.72 0 42 0 C42 1.32 42 2.64 42 4 C28.14 4 14.28 4 0 4 C0 2.68 0 1.36 0 0 Z " fill="#4D4D4D" transform="translate(50,114)"/>
<path d="M0 0 C9.24 0 18.48 0 28 0 C28 1.32 28 2.64 28 4 C18.76 4 9.52 4 0 4 C0 2.68 0 1.36 0 0 Z " fill="#4D4D4D" transform="translate(57,121)"/>
<path d="M0 0 C1.4540625 0.0309375 1.4540625 0.0309375 2.9375 0.0625 C3.0625 2.4375 3.0625 2.4375 2.9375 5.0625 C2.2775 5.7225 1.6175 6.3825 0.9375 7.0625 C-1.6875 6.6875 -1.6875 6.6875 -4.0625 6.0625 C-4.105221 4.39638095 -4.10313832 2.72867115 -4.0625 1.0625 C-3.0625 0.0625 -3.0625 0.0625 0 0 Z " fill="#4E4E4E" transform="translate(63.0625,70.9375)"/>
</svg>
